<svg xmlns="http://www.w3.org/2000/svg" xmlns:xlink="http://www.w3.org/1999/xlink" width="353.802" height="118.19" viewBox="0 0 353.802 118.19">
  <defs>
    <clipPath id="clip-path">
      <rect id="Rectangle_1016" data-name="Rectangle 1016" width="353.802" height="118.19" transform="translate(0 0)" fill="#3055a3"/>
    </clipPath>
  </defs>
  <g id="Group_9891" data-name="Group 9891" transform="translate(0 0)" clip-path="url(#clip-path)">
    <path id="Path_20447" data-name="Path 20447" d="M99.515,46.1H67.878c.586,7.226,5.272,11.619,11.816,12.2a22.747,22.747,0,0,0,2.539.1A23.045,23.045,0,0,0,96,54.005L98.05,62.89a32.681,32.681,0,0,1-18.356,5.371c-15.233,0-24.8-10.349-24.8-24.8,0-14.16,9.961-24.8,23.241-24.8,6.54,0,11.424,1.857,15.231,5.761,4.2,4.2,6.347,10.449,6.347,18.163,0,1.171-.1,2.246-.2,3.515m-12.01-8.5c-.294-5.175-2.735-9.665-9.373-9.665-4.883,0-8.888,3.22-9.864,9.665Z" transform="translate(30.833 10.479)" fill="#3055a3"/>
    <path id="Path_20448" data-name="Path 20448" d="M120.8,31.769a12.329,12.329,0,0,0-6.834-2.051,13.377,13.377,0,0,0-1.955.2c-6.248.781-8.885,5.468-8.885,13.182V67.02h-12.5V31.671c0-5.174-.976-9.472-4.785-10.448V19.758h16.014l.294,7.91c2.441-5.761,7.128-8.789,12.01-8.886h.684c4,0,6.932,1.171,8.983,3.027Z" transform="translate(48.221 10.55)" fill="#3055a3"/>
    <path id="Path_20449" data-name="Path 20449" d="M187.365,67.019h-12.5V37.139c0-3.32-1.173-8.593-7.324-8.593-3.515,0-7.518,2.149-9.667,6.737a11.133,11.133,0,0,1,.1,1.855v29.88h-12.5V37.139c0-3.32-1.171-8.593-7.323-8.593-3.711,0-7.323,2.051-9.57,6.542V67.019h-12.5V31.768c0-5.174-.976-9.472-4.783-10.448V19.855H127.6l.294,5.86c3.417-5.077,8.4-6.934,14.255-6.934,5.567,0,10.937,2.246,13.77,7.91,4.784-6.347,10.253-7.91,15.623-7.91,8.2,0,15.819,4.785,15.819,18.358Z" transform="translate(62.518 10.55)" fill="#3055a3"/>
    <path id="Path_20450" data-name="Path 20450" d="M181.363,74.009h-12.5V38.758c0-5.272-.976-9.57-4.784-10.448V26.845h17.283ZM174.625,20.3a7.045,7.045,0,0,1-7.031-6.934,7.031,7.031,0,0,1,14.062,0,6.98,6.98,0,0,1-7.031,6.934" transform="translate(92.165 3.561)" fill="#3055a3"/>
    <path id="Path_20451" data-name="Path 20451" d="M214.866,68.9a25.489,25.489,0,0,1-12.206,3.32c-9.47,0-16.014-4.59-16.014-15.623V33.456h-6.932V30.234L198.95,11.779v12.01H213.3v9.667H198.95V55.427c0,4.2,2.051,6.542,5.274,6.932h1.562a16.828,16.828,0,0,0,9.081-3.028Z" transform="translate(100.947 6.616)" fill="#3055a3"/>
    <path id="Path_20452" data-name="Path 20452" d="M238.384,52.9v.487c0,11.717-11.327,14.842-18.845,14.842a26.534,26.534,0,0,1-14.062-3.515V52.9c4.687,4,8.789,5.564,14.452,5.564,4.1,0,6.64-1.562,6.64-4.393,0-2.441-2.149-4.1-4.2-5.079l-7.812-3.514c-2.538-1.171-9.081-4.883-9.081-12.792,0-.586.1-1.171.1-1.757.976-8.4,9.472-12.206,16.991-12.206,5.466,0,10.448,1.171,13.766,3.417V33.268a19.625,19.625,0,0,0-12.986-4.785c-2.443,0-5.274.879-5.469,3.028v.39c0,1.463.879,2.831,3.222,3.906l7.91,3.614c5.174,2.343,9.373,6.053,9.373,13.279Z" transform="translate(115.418 10.515)" fill="#3055a3"/>
    <path id="Path_20453" data-name="Path 20453" d="M80.547,78.692H76.373V64.427l-5.585,8.319H68.806l-5.5-8.319V78.692H59.136V62.536c0-2.343-.211-3.784-1.682-4.324V57.7H63.61l6.517,9.7,6.486-9.7h3.934Z" transform="translate(32.272 32.411)" fill="#3055a3"/>
    <path id="Path_20454" data-name="Path 20454" d="M87.227,76.026a5.33,5.33,0,0,1-2.644.751h-.089l-.12-.03a2.219,2.219,0,0,1-2.282-1.5,4.959,4.959,0,0,1-3.6,1.532c-2.343,0-4.474-1.382-4.474-3.9,0-2.492,1.891-3.993,4.624-4.8a23.792,23.792,0,0,1,3.033-.661v-.42c0-1.5-.72-2.283-2.132-2.283a6.088,6.088,0,0,0-4.624,2.163V63.5a7.892,7.892,0,0,1,5.165-1.862,5.76,5.76,0,0,1,4.054,1.381,4.817,4.817,0,0,1,1.382,3.544v6.817c0,.42.15.6.359.661a.7.7,0,0,0,.27.061,2.256,2.256,0,0,0,1.112-.39ZM81.64,69.69c-2.583.361-3.964,1.231-3.964,2.7v.059c0,.931.811,1.591,1.982,1.591h.091a2.36,2.36,0,0,0,1.891-.96Z" transform="translate(41.574 34.625)" fill="#3055a3"/>
    <path id="Path_20455" data-name="Path 20455" d="M97.561,76.478H93.717V67.289c0-1.051-.361-2.642-2.343-2.642a3.6,3.6,0,0,0-3.123,2.011v9.82H84.408V65.636c0-1.591-.3-2.913-1.471-3.212v-.451h5.015l.059,1.682a5.271,5.271,0,0,1,4.445-2.011c2.642,0,5.105,1.471,5.105,5.646Z" transform="translate(46.586 34.625)" fill="#3055a3"/>
    <path id="Path_20456" data-name="Path 20456" d="M107.054,76.026a5.318,5.318,0,0,1-2.641.751h-.091l-.12-.03a2.222,2.222,0,0,1-2.283-1.5,4.953,4.953,0,0,1-3.6,1.532c-2.343,0-4.474-1.382-4.474-3.9,0-2.492,1.891-3.993,4.624-4.8a23.792,23.792,0,0,1,3.033-.661v-.42c0-1.5-.72-2.283-2.132-2.283a6.086,6.086,0,0,0-4.624,2.163V63.5a7.892,7.892,0,0,1,5.165-1.862,5.76,5.76,0,0,1,4.054,1.381,4.817,4.817,0,0,1,1.382,3.544v6.817c0,.42.15.6.361.661a.688.688,0,0,0,.269.061,2.256,2.256,0,0,0,1.112-.39Zm-5.585-6.336c-2.583.361-3.964,1.231-3.964,2.7v.059c0,.931.811,1.591,1.982,1.591h.091a2.36,2.36,0,0,0,1.891-.96Z" transform="translate(52.712 34.625)" fill="#3055a3"/>
    <path id="Path_20457" data-name="Path 20457" d="M117.359,78.642c0,2.883-3.212,4.8-7.6,4.8-4.534,0-7.477-1.771-7.477-4.474,0-1.771,1.292-3.453,4.025-3.964a1.845,1.845,0,0,1-1.773-1.741,2.1,2.1,0,0,1,1.952-1.952,4.558,4.558,0,0,1-2.883-4.265c0-3.063,2.583-5.194,6.306-5.194h7.357v2.972h-1.351a9.56,9.56,0,0,1-1.321-.089,3.142,3.142,0,0,1,1.262,2.491v.211c0,2.553-1.983,4.354-5.436,4.624-1.532.12-2.252.361-2.252.962,0,.511.451.9,1.441.99,1.021.12,2.522.27,3.033.331,2.973.39,4.715,1.891,4.715,4.054Zm-7.6-1.773c-2.313,0-3.873.69-3.873,1.952s1.56,1.952,3.873,1.952c2.343,0,3.9-.69,3.9-1.952s-1.562-1.952-3.9-1.952m-.03-12.462a2.642,2.642,0,1,0,2.642,2.642,2.531,2.531,0,0,0-2.642-2.642" transform="translate(57.454 34.745)" fill="#3055a3"/>
    <path id="Path_20458" data-name="Path 20458" d="M126.278,70.043h-9.729a3.836,3.836,0,0,0,3.634,3.754,7.628,7.628,0,0,0,5.015-1.321l.631,2.731a10.05,10.05,0,0,1-5.646,1.652,7.219,7.219,0,0,1-7.629-7.627c0-4.354,3.064-7.627,7.148-7.627a6.138,6.138,0,0,1,4.685,1.771,7.671,7.671,0,0,1,1.952,5.586c0,.359-.031.69-.061,1.081m-3.693-2.613c-.091-1.591-.842-2.973-2.883-2.973-1.5,0-2.733.992-3.033,2.973Z" transform="translate(63.223 34.604)" fill="#3055a3"/>
    <path id="Path_20459" data-name="Path 20459" d="M145.468,76.478h-3.843V67.289c0-1.021-.361-2.642-2.254-2.642a3.368,3.368,0,0,0-2.972,2.071,3.5,3.5,0,0,1,.03.572v9.189h-3.843V67.289c0-1.021-.361-2.642-2.254-2.642a3.281,3.281,0,0,0-2.942,2.011v9.82h-3.843V65.636c0-1.591-.3-2.913-1.473-3.212v-.451h5.016l.089,1.8a4.9,4.9,0,0,1,4.385-2.132,4.48,4.48,0,0,1,4.234,2.432,5.6,5.6,0,0,1,4.805-2.432c2.522,0,4.865,1.471,4.865,5.646Z" transform="translate(68.57 34.625)" fill="#3055a3"/>
    <path id="Path_20460" data-name="Path 20460" d="M152.165,70.043h-9.729A3.836,3.836,0,0,0,146.07,73.8a7.628,7.628,0,0,0,5.015-1.321l.631,2.731a10.05,10.05,0,0,1-5.646,1.652,7.219,7.219,0,0,1-7.629-7.627c0-4.354,3.064-7.627,7.148-7.627a6.138,6.138,0,0,1,4.685,1.771,7.671,7.671,0,0,1,1.952,5.586c0,.359-.031.69-.061,1.081m-3.693-2.613c-.091-1.591-.842-2.973-2.883-2.973-1.5,0-2.733.992-3.033,2.973Z" transform="translate(77.763 34.604)" fill="#3055a3"/>
    <path id="Path_20461" data-name="Path 20461" d="M162.585,76.478h-3.843V67.289c0-1.051-.361-2.642-2.343-2.642a3.6,3.6,0,0,0-3.123,2.011v9.82h-3.843V65.636c0-1.591-.3-2.913-1.471-3.212v-.451h5.015l.059,1.682a5.271,5.271,0,0,1,4.445-2.011c2.642,0,5.105,1.471,5.105,5.646Z" transform="translate(83.111 34.625)" fill="#3055a3"/>
    <path id="Path_20462" data-name="Path 20462" d="M169.388,77.057a7.841,7.841,0,0,1-3.754,1.021c-2.913,0-4.924-1.412-4.924-4.805V66.156h-2.132v-.992l5.916-5.675v3.693h4.413v2.973h-4.413v6.756c0,1.292.631,2.013,1.621,2.133h.481a5.18,5.18,0,0,0,2.792-.931Z" transform="translate(89.075 33.416)" fill="#3055a3"/>
    <path id="Path_20463" data-name="Path 20463" d="M180.38,73.461c-.181,4.354-3.754,6.066-7.267,6.066a9.287,9.287,0,0,1-5.466-1.5V73.791a7.319,7.319,0,0,0,5.315,2.372c1.773,0,3.123-.69,3.334-2.191a1.608,1.608,0,0,0,.03-.361c0-1.562-1.471-2.343-3.843-3.664-2.492-1.351-4.955-2.853-4.955-6.426v-.39c.209-4.054,4.114-5.525,6.907-5.525a8.09,8.09,0,0,1,4.985,1.382v3.964a6.481,6.481,0,0,0-4.685-1.893c-1.893,0-2.942.722-3.033,1.862a.389.389,0,0,0-.03.181c0,1.292,1.231,2.252,3.333,3.423,2.672,1.5,5.375,2.973,5.375,6.606Z" transform="translate(94.101 32.357)" fill="#3055a3"/>
    <path id="Path_20464" data-name="Path 20464" d="M192.837,62.066,183.377,83.3l-3.964.03,3.723-8.379-4.624-9.219c-.871-1.741-1.352-2.942-2.524-3.212v-.451h5.377l3.814,8.318,3.723-8.318Z" transform="translate(98.854 34.863)" fill="#3055a3"/>
    <path id="Path_20465" data-name="Path 20465" d="M197.475,72.345v.15c0,3.6-3.484,4.565-5.8,4.565a8.161,8.161,0,0,1-4.324-1.081V72.345a6.251,6.251,0,0,0,4.445,1.712c1.26,0,2.041-.481,2.041-1.351a1.914,1.914,0,0,0-1.29-1.562l-2.4-1.081a4.439,4.439,0,0,1-2.792-3.934c0-.181.03-.361.03-.542.3-2.582,2.913-3.753,5.225-3.753a7.74,7.74,0,0,1,4.234,1.051v3.423a6.035,6.035,0,0,0-3.993-1.471c-.751,0-1.623.27-1.682.931v.12c0,.45.27.87.992,1.2l2.432,1.11a4.248,4.248,0,0,1,2.883,4.085Z" transform="translate(105.239 34.733)" fill="#3055a3"/>
    <path id="Path_20466" data-name="Path 20466" d="M205.32,77.268a7.842,7.842,0,0,1-3.754,1.021c-2.913,0-4.924-1.412-4.924-4.805V66.367H194.51v-.992l5.916-5.675v3.693h4.413v2.973h-4.413v6.756c0,1.292.629,2.013,1.621,2.133h.481a5.18,5.18,0,0,0,2.792-.931Z" transform="translate(109.258 33.534)" fill="#3055a3"/>
    <path id="Path_20467" data-name="Path 20467" d="M215.772,70.254h-9.729a3.836,3.836,0,0,0,3.634,3.754,7.628,7.628,0,0,0,5.015-1.321l.631,2.731a10.05,10.05,0,0,1-5.646,1.652,7.219,7.219,0,0,1-7.629-7.627c0-4.354,3.064-7.627,7.148-7.627a6.138,6.138,0,0,1,4.685,1.771,7.671,7.671,0,0,1,1.952,5.586c0,.359-.031.69-.061,1.081m-3.693-2.613c-.091-1.591-.842-2.973-2.883-2.973-1.5,0-2.733.992-3.033,2.973Z" transform="translate(113.492 34.723)" fill="#3055a3"/>
    <path id="Path_20468" data-name="Path 20468" d="M234.962,76.689h-3.843V67.5c0-1.021-.361-2.642-2.252-2.642a3.368,3.368,0,0,0-2.974,2.071,3.506,3.506,0,0,1,.03.572v9.189h-3.843V67.5c0-1.021-.361-2.642-2.252-2.642a3.281,3.281,0,0,0-2.944,2.011v9.82H213.04V65.847c0-1.591-.3-2.913-1.471-3.212v-.451h5.015l.091,1.8a4.894,4.894,0,0,1,4.384-2.132,4.48,4.48,0,0,1,4.234,2.432,5.6,5.6,0,0,1,4.805-2.432c2.522,0,4.865,1.471,4.865,5.646Z" transform="translate(118.84 34.744)" fill="#3055a3"/>
    <path id="Path_20469" data-name="Path 20469" d="M39.923.03A39,39,0,0,1,69.358,12.31,41,41,0,0,1,79.545,31.648a39.151,39.151,0,0,1-2.086,23.946A40.1,40.1,0,0,1,70.767,66.3c-2.172,2.489-4.588,4.751-6.921,7.089-.885.89-1.78,1.771-2.66,2.667-.276.281-.464.353-.8.023q-2.582-2.507-5.079-5.1c-1.416-1.476-2.92-2.864-4.368-4.309q-9.3-9.286-18.594-18.586a11.093,11.093,0,0,1-.962-14.557,10.887,10.887,0,0,1,8.852-4.518A11.173,11.173,0,0,1,51.386,40a11.036,11.036,0,0,1-3.3,8.074,9.149,9.149,0,0,0-2.525,9.572c1.053,3.589,5.14,6.964,9.133,6.946,3.454-.016,5.936-1.629,8.1-4.04a32.572,32.572,0,0,0,4.749-6.642,28.031,28.031,0,0,0,3.083-9.837A31.138,31.138,0,0,0,70,32.932,28.411,28.411,0,0,0,65.871,23.7a34.986,34.986,0,0,0-4.532-5.4,29.62,29.62,0,0,0-39.177-2.541,33.294,33.294,0,0,0-9.4,11.179A27.887,27.887,0,0,0,9.845,36.958,30.521,30.521,0,0,0,10.9,48.972a28.17,28.17,0,0,0,6.245,10.994C21.411,64.606,26,68.928,30.434,73.4q8.075,8.133,16.218,16.2c.387.384.392.618,0,1q-2.968,2.917-5.888,5.886c-.389.4-.631.376-1.014-.006-9.522-9.54-19.126-19-28.559-28.629A38.246,38.246,0,0,1,.379,45.821a40.076,40.076,0,0,1,2.786-21.08,40.153,40.153,0,0,1,9.626-14.062A38.514,38.514,0,0,1,32.021.756a32.455,32.455,0,0,1,7.9-.726" transform="translate(0 0)" fill="#3055a3"/>
    <path id="Path_20470" data-name="Path 20470" d="M32.9,62.834c3.212-.119,6.42.2,9.631.123,2.616-.061,5.222.184,7.832.294,1.6.069,3.192.308,4.779.536.553.081,1.373.151,1.32.914-.044.634-.84.647-1.34.729a47.718,47.718,0,0,1-5.567.592c-3.275.158-6.55.162-9.823.281-2.575.094-5.151.151-7.718.062-3.631-.126-7.262,0-10.888-.136a15.823,15.823,0,0,1-3.726-.311c-.856-.236-1.793.187-2.681-.059a13.045,13.045,0,0,1-3.15-.879c-.166-.094-.392-.164-.373-.411s.225-.325.406-.387a9.826,9.826,0,0,1,1.26-.383,31.563,31.563,0,0,1,4.613-.576c3.184-.166,6.372-.191,9.556-.3,1.958-.067,3.915-.027,5.87-.089" transform="translate(6.286 35.279)" fill="#3055a3"/>
  </g>
</svg>
