<svg xmlns="http://www.w3.org/2000/svg" xmlns:xlink="http://www.w3.org/1999/xlink" width="226.548" height="75.68" viewBox="0 0 226.548 75.68">
  <defs>
    <clipPath id="clip-path">
      <rect id="Rectangle_141" data-name="Rectangle 141" width="226.548" height="75.68" transform="translate(0 0)" fill="#fff"/>
    </clipPath>
  </defs>
  <g id="Group_9849" data-name="Group 9849" transform="translate(0 0)">
    <g id="Group_9848" data-name="Group 9848" clip-path="url(#clip-path)">
      <path id="Path_20338" data-name="Path 20338" d="M83.465,36.226H63.207c.375,4.627,3.376,7.44,7.566,7.815A14.566,14.566,0,0,0,72.4,44.1a14.756,14.756,0,0,0,8.815-2.813l1.313,5.689a20.927,20.927,0,0,1-11.754,3.439c-9.754,0-15.882-6.627-15.882-15.881,0-9.067,6.378-15.882,14.882-15.882,4.188,0,7.315,1.189,9.753,3.689,2.689,2.689,4.064,6.691,4.064,11.63,0,.75-.062,1.438-.125,2.251m-7.69-5.44c-.188-3.314-1.751-6.189-6-6.189-3.127,0-5.691,2.062-6.316,6.189Z" fill="#fff"/>
      <path id="Path_20339" data-name="Path 20339" d="M108.231,27.1a7.894,7.894,0,0,0-4.376-1.313,8.565,8.565,0,0,0-1.252.125c-4,.5-5.689,3.5-5.689,8.441V49.67h-8V27.035c0-3.313-.625-6.065-3.064-6.69v-.938H96.1l.188,5.065c1.563-3.689,4.564-5.628,7.69-5.69h.438a8.263,8.263,0,0,1,5.752,1.938Z" fill="#fff"/>
      <path id="Path_20340" data-name="Path 20340" d="M160.006,49.669h-8V30.536c0-2.126-.751-5.5-4.69-5.5a7.015,7.015,0,0,0-6.19,4.314,7.129,7.129,0,0,1,.063,1.188V49.669h-8V30.536c0-2.126-.75-5.5-4.689-5.5-2.376,0-4.689,1.313-6.128,4.189V49.669h-8V27.1c0-3.313-.625-6.065-3.063-6.69v-.938H121.74l.188,3.752c2.188-3.251,5.377-4.44,9.128-4.44,3.565,0,7,1.438,8.817,5.065a11.656,11.656,0,0,1,10-5.065c5.252,0,10.129,3.064,10.129,11.755Z" fill="#fff"/>
      <path id="Path_20341" data-name="Path 20341" d="M175.147,49.67h-8V27.1c0-3.376-.625-6.128-3.063-6.69V19.47h11.067Zm-4.315-34.389a4.471,4.471,0,1,1,4.5-4.44,4.511,4.511,0,0,1-4.5,4.44" fill="#fff"/>
      <path id="Path_20342" data-name="Path 20342" d="M202.223,48.356a16.322,16.322,0,0,1-7.816,2.126c-6.064,0-10.254-2.939-10.254-10V25.659h-4.439V23.6l12.317-11.817v7.69h9.191v6.19h-9.191V39.728c0,2.688,1.313,4.189,3.377,4.439h1a10.776,10.776,0,0,0,5.815-1.939Z" fill="#fff"/>
      <path id="Path_20343" data-name="Path 20343" d="M226.548,40.6v.312c0,7.5-7.253,9.5-12.067,9.5a16.99,16.99,0,0,1-9-2.251V40.6a13.011,13.011,0,0,0,9.254,3.563c2.626,0,4.252-1,4.252-2.813,0-1.563-1.376-2.626-2.689-3.252l-5-2.25c-1.625-.75-5.815-3.127-5.815-8.191,0-.375.063-.75.063-1.125.625-5.377,6.065-7.816,10.88-7.816a16.145,16.145,0,0,1,8.815,2.188v7.128a12.566,12.566,0,0,0-8.315-3.064c-1.564,0-3.377.563-3.5,1.939v.25c0,.937.563,1.813,2.063,2.5l5.065,2.314c3.313,1.5,6,3.876,6,8.5Z" fill="#fff"/>
      <path id="Path_20344" data-name="Path 20344" d="M72.241,71.142H69.568V62.008l-3.576,5.327H64.723L61.2,62.008v9.134H58.531V60.8c0-1.5-.135-2.423-1.077-2.769V57.7H61.4l4.173,6.211L69.722,57.7h2.519Z" fill="#fff"/>
      <path id="Path_20345" data-name="Path 20345" d="M82.474,70.853a3.413,3.413,0,0,1-1.693.481h-.057l-.077-.019a1.421,1.421,0,0,1-1.461-.962,3.175,3.175,0,0,1-2.308.981,2.6,2.6,0,0,1-2.865-2.5c0-1.6,1.211-2.557,2.961-3.076a15.235,15.235,0,0,1,1.942-.423v-.269c0-.962-.461-1.462-1.365-1.462a3.9,3.9,0,0,0-2.961,1.385V62.835A5.054,5.054,0,0,1,77.9,61.643a3.688,3.688,0,0,1,2.6.884,3.085,3.085,0,0,1,.885,2.269v4.365c0,.269.1.385.23.423a.45.45,0,0,0,.173.039,1.445,1.445,0,0,0,.712-.25ZM78.9,66.8c-1.654.231-2.538.788-2.538,1.731v.038c0,.6.519,1.019,1.269,1.019h.058a1.511,1.511,0,0,0,1.211-.615Z" fill="#fff"/>
      <path id="Path_20346" data-name="Path 20346" d="M92.3,71.142H89.84V65.258c0-.673-.231-1.692-1.5-1.692a2.306,2.306,0,0,0-2,1.288v6.288H83.879V64.2c0-1.019-.193-1.865-.942-2.057v-.289h3.211l.038,1.077a3.375,3.375,0,0,1,2.846-1.288c1.692,0,3.269.942,3.269,3.615Z" fill="#fff"/>
      <path id="Path_20347" data-name="Path 20347" d="M102.3,70.853a3.405,3.405,0,0,1-1.691.481h-.058l-.077-.019a1.423,1.423,0,0,1-1.462-.962,3.171,3.171,0,0,1-2.307.981,2.6,2.6,0,0,1-2.865-2.5c0-1.6,1.211-2.557,2.961-3.076a15.235,15.235,0,0,1,1.942-.423v-.269c0-.962-.461-1.462-1.365-1.462a3.9,3.9,0,0,0-2.961,1.385V62.835a5.054,5.054,0,0,1,3.307-1.192,3.688,3.688,0,0,1,2.6.884,3.085,3.085,0,0,1,.885,2.269v4.365c0,.269.1.385.231.423a.44.44,0,0,0,.172.039,1.445,1.445,0,0,0,.712-.25ZM98.726,66.8c-1.654.231-2.538.788-2.538,1.731v.038c0,.6.519,1.019,1.269,1.019h.058a1.511,1.511,0,0,0,1.211-.615Z" fill="#fff"/>
      <path id="Path_20348" data-name="Path 20348" d="M111.937,72.6c0,1.846-2.057,3.076-4.865,3.076-2.9,0-4.788-1.134-4.788-2.865,0-1.134.827-2.211,2.577-2.538a1.181,1.181,0,0,1-1.135-1.115,1.342,1.342,0,0,1,1.25-1.25,2.919,2.919,0,0,1-1.846-2.731c0-1.961,1.654-3.326,4.038-3.326h4.711v1.9h-.865a6.121,6.121,0,0,1-.846-.057,2.012,2.012,0,0,1,.808,1.595v.135c0,1.635-1.27,2.788-3.481,2.961-.981.077-1.442.231-1.442.616,0,.327.289.577.923.634.654.077,1.615.173,1.942.212,1.9.25,3.019,1.211,3.019,2.6Zm-4.865-1.135c-1.481,0-2.48.442-2.48,1.25s1,1.25,2.48,1.25c1.5,0,2.5-.442,2.5-1.25s-1-1.25-2.5-1.25m-.019-7.98a1.692,1.692,0,1,0,1.692,1.692,1.621,1.621,0,0,0-1.692-1.692" fill="#fff"/>
      <path id="Path_20349" data-name="Path 20349" d="M121.342,67.008h-6.23a2.457,2.457,0,0,0,2.327,2.4,4.885,4.885,0,0,0,3.211-.846l.4,1.749a6.435,6.435,0,0,1-3.615,1.058,4.889,4.889,0,0,1-.308-9.768,3.93,3.93,0,0,1,3,1.134,4.912,4.912,0,0,1,1.25,3.577c0,.23-.02.442-.039.692m-2.365-1.673a1.759,1.759,0,0,0-1.846-1.9,1.967,1.967,0,0,0-1.942,1.9Z" fill="#fff"/>
      <path id="Path_20350" data-name="Path 20350" d="M137.054,71.142h-2.461V65.258c0-.654-.231-1.692-1.443-1.692a2.157,2.157,0,0,0-1.9,1.326,2.243,2.243,0,0,1,.019.366v5.884H128.8V65.258c0-.654-.231-1.692-1.443-1.692a2.1,2.1,0,0,0-1.884,1.288v6.288h-2.461V64.2c0-1.019-.193-1.865-.943-2.057v-.289h3.212l.057,1.154a3.137,3.137,0,0,1,2.808-1.365,2.869,2.869,0,0,1,2.711,1.557,3.587,3.587,0,0,1,3.077-1.557c1.615,0,3.115.942,3.115,3.615Z" fill="#fff"/>
      <path id="Path_20351" data-name="Path 20351" d="M147.229,67.008H141a2.457,2.457,0,0,0,2.327,2.4,4.885,4.885,0,0,0,3.211-.846l.4,1.749a6.435,6.435,0,0,1-3.615,1.058,4.889,4.889,0,0,1-.308-9.768,3.93,3.93,0,0,1,3,1.134,4.912,4.912,0,0,1,1.25,3.577c0,.23-.02.442-.039.692m-2.365-1.673a1.759,1.759,0,0,0-1.846-1.9,1.967,1.967,0,0,0-1.942,1.9Z" fill="#fff"/>
      <path id="Path_20352" data-name="Path 20352" d="M157.325,71.142h-2.461V65.258c0-.673-.231-1.692-1.5-1.692a2.307,2.307,0,0,0-2,1.288v6.288H148.9V64.2c0-1.019-.193-1.865-.942-2.057v-.289h3.211l.038,1.077a3.375,3.375,0,0,1,2.846-1.288c1.692,0,3.269.942,3.269,3.615Z" fill="#fff"/>
      <path id="Path_20353" data-name="Path 20353" d="M165.5,70.738a5.021,5.021,0,0,1-2.4.654c-1.865,0-3.153-.9-3.153-3.077V63.758h-1.365v-.635l3.788-3.634v2.365h2.826v1.9h-2.826v4.326c0,.827.4,1.289,1.038,1.366h.308a3.317,3.317,0,0,0,1.788-.6Z" fill="#fff"/>
      <path id="Path_20354" data-name="Path 20354" d="M175.757,67.758c-.116,2.788-2.4,3.884-4.653,3.884a5.947,5.947,0,0,1-3.5-.961V67.969a4.686,4.686,0,0,0,3.4,1.519c1.135,0,2-.442,2.135-1.4a1.029,1.029,0,0,0,.019-.231c0-1-.942-1.5-2.461-2.346-1.6-.865-3.173-1.827-3.173-4.115v-.25c.134-2.6,2.634-3.538,4.423-3.538a5.18,5.18,0,0,1,3.192.885v2.538a4.15,4.15,0,0,0-3-1.212c-1.212,0-1.884.462-1.942,1.192a.249.249,0,0,0-.019.116c0,.827.788,1.442,2.134,2.192,1.711.961,3.442,1.9,3.442,4.23Z" fill="#fff"/>
      <path id="Path_20355" data-name="Path 20355" d="M186.777,62.066l-6.057,13.6-2.538.019,2.384-5.365-2.961-5.9c-.558-1.115-.866-1.884-1.616-2.057v-.289h3.443l2.442,5.326,2.384-5.326Z" fill="#fff"/>
      <path id="Path_20356" data-name="Path 20356" d="M193.835,68.565v.1c0,2.308-2.231,2.923-3.711,2.923a5.226,5.226,0,0,1-2.769-.692V68.565a4,4,0,0,0,2.846,1.1c.807,0,1.307-.308,1.307-.865a1.226,1.226,0,0,0-.826-1l-1.539-.692a2.842,2.842,0,0,1-1.788-2.519c0-.116.019-.231.019-.347.192-1.653,1.865-2.4,3.346-2.4a4.956,4.956,0,0,1,2.711.673V64.7a3.864,3.864,0,0,0-2.557-.942c-.481,0-1.039.173-1.077.6v.077c0,.288.173.557.635.769l1.557.711a2.72,2.72,0,0,1,1.846,2.616Z" fill="#fff"/>
      <path id="Path_20357" data-name="Path 20357" d="M201.432,70.949a5.021,5.021,0,0,1-2.4.654c-1.865,0-3.153-.9-3.153-3.077V63.969H194.51v-.635L198.3,59.7v2.365h2.826v1.9H198.3v4.326c0,.827.4,1.289,1.038,1.366h.308a3.317,3.317,0,0,0,1.788-.6Z" fill="#fff"/>
      <path id="Path_20358" data-name="Path 20358" d="M210.836,67.219h-6.23a2.457,2.457,0,0,0,2.327,2.4,4.884,4.884,0,0,0,3.211-.846l.4,1.749a6.435,6.435,0,0,1-3.615,1.058,4.889,4.889,0,0,1-.308-9.768,3.93,3.93,0,0,1,3,1.134,4.912,4.912,0,0,1,1.25,3.577c0,.23-.02.442-.039.692m-2.365-1.673a1.759,1.759,0,0,0-1.846-1.9,1.966,1.966,0,0,0-1.942,1.9Z" fill="#fff"/>
      <path id="Path_20359" data-name="Path 20359" d="M226.548,71.353h-2.461V65.469c0-.654-.231-1.692-1.442-1.692a2.157,2.157,0,0,0-1.9,1.326,2.244,2.244,0,0,1,.019.366v5.884H218.3V65.469c0-.654-.231-1.692-1.442-1.692a2.1,2.1,0,0,0-1.885,1.288v6.288h-2.461V64.411c0-1.019-.193-1.865-.942-2.057v-.289h3.211l.058,1.154a3.134,3.134,0,0,1,2.807-1.365,2.869,2.869,0,0,1,2.711,1.557,3.586,3.586,0,0,1,3.077-1.557c1.615,0,3.115.942,3.115,3.615Z" fill="#fff"/>
      <path id="Path_20360" data-name="Path 20360" d="M25.564.019A24.972,24.972,0,0,1,44.412,7.882a26.254,26.254,0,0,1,6.523,12.383A25.069,25.069,0,0,1,49.6,35.6a25.674,25.674,0,0,1-4.285,6.858c-1.391,1.594-2.938,3.042-4.432,4.539-.567.57-1.14,1.134-1.7,1.708-.177.18-.3.226-.515.015q-1.653-1.6-3.252-3.265c-.907-.945-1.87-1.834-2.8-2.759q-5.957-5.946-11.906-11.9a7.1,7.1,0,0,1-.616-9.321,6.971,6.971,0,0,1,5.668-2.893A7.154,7.154,0,0,1,32.9,25.611a7.066,7.066,0,0,1-2.115,5.17,5.858,5.858,0,0,0-1.617,6.129,6.6,6.6,0,0,0,5.848,4.448,6.761,6.761,0,0,0,5.188-2.587,20.857,20.857,0,0,0,3.041-4.253,17.949,17.949,0,0,0,1.974-6.3,19.939,19.939,0,0,0-.4-7.132,18.192,18.192,0,0,0-2.644-5.913,22.4,22.4,0,0,0-2.9-3.459,18.966,18.966,0,0,0-25.086-1.627,21.319,21.319,0,0,0-6.022,7.158A17.857,17.857,0,0,0,6.3,23.665a19.543,19.543,0,0,0,.678,7.693,18.038,18.038,0,0,0,4,7.04c2.729,2.971,5.666,5.738,8.507,8.6q5.17,5.208,10.385,10.376c.248.246.251.4,0,.643q-1.9,1.868-3.77,3.769c-.249.253-.4.241-.649,0-6.1-6.109-12.247-12.167-18.287-18.332A24.49,24.49,0,0,1,.243,29.34a25.662,25.662,0,0,1,1.784-13.5,25.711,25.711,0,0,1,6.164-9A24.662,24.662,0,0,1,20.5.484a20.782,20.782,0,0,1,5.06-.465" fill="#fff"/>
      <path id="Path_20361" data-name="Path 20361" d="M25.091,62.824c2.057-.076,4.111.128,6.167.079,1.675-.039,3.344.118,5.015.188,1.023.044,2.044.2,3.06.343.354.052.879.1.845.585-.028.406-.538.414-.858.467a30.555,30.555,0,0,1-3.565.379c-2.1.1-4.194.1-6.29.18-1.649.06-3.3.1-4.942.04-2.325-.081-4.65,0-6.972-.087a10.132,10.132,0,0,1-2.386-.2c-.548-.151-1.148.12-1.717-.038a8.353,8.353,0,0,1-2.017-.563c-.106-.06-.251-.1-.239-.263s.144-.208.26-.248a6.291,6.291,0,0,1,.807-.245,20.21,20.21,0,0,1,2.954-.369c2.039-.106,4.08-.122,6.119-.192,1.254-.043,2.507-.017,3.759-.057" fill="#fff"/>
    </g>
  </g>
</svg>
